<svg width="33" height="33" viewBox="0 0 33 33" fill="none" xmlns="http://www.w3.org/2000/svg">
<path d="M0.901489 0.566406H32.9015V32.5664H0.901489V0.566406Z" fill="#E60000"/>
<path d="M3.61631 21.8358H4.29355C4.79385 21.8358 5.23925 21.7076 5.62973 21.4514C6.03241 21.1951 6.34357 20.884 6.56322 20.5179L14.0861 9.38918H14.5254V21.0487C14.5498 21.3538 14.6352 21.5612 14.7816 21.671C14.9281 21.7809 15.1355 21.8358 15.404 21.8358H16.429L16.2825 22.4215H10.8646L11.011 21.8358H12.1459C12.4021 21.8358 12.5913 21.7809 12.7133 21.671C12.8475 21.5612 12.9146 21.3355 12.9146 20.9938V17.9554H9.08914L7.84449 19.7857C7.4296 20.3837 7.22216 20.8596 7.22216 21.2134C7.22216 21.6283 7.46621 21.8358 7.95431 21.8358H8.96102L8.81459 22.4215H3.46988L3.61631 21.8358ZM9.49183 17.3696H12.9146V12.3178L9.49183 17.3696Z" fill="#1A1A1A"/>
<path d="M20.3786 22.751C19.6708 22.751 19.018 22.5496 18.4201 22.1469C17.8343 21.7442 17.3646 21.1707 17.0107 20.4264C16.669 19.682 16.4982 18.8095 16.4982 17.8089C16.4982 16.4056 16.8337 15.0268 17.5049 13.6723C18.1882 12.3178 19.0668 11.2135 20.1406 10.3593C21.2267 9.49291 22.3432 9.05972 23.4902 9.05972C24.4542 9.05972 25.3084 9.38918 26.0527 10.0481C26.2602 10.2434 26.4127 10.3776 26.5103 10.4508C26.6202 10.5118 26.73 10.5423 26.8398 10.5423C27.2181 10.5423 27.4865 10.0969 27.6452 9.20615H28.0662L26.8947 14.8071H26.4737C26.4859 14.5753 26.492 14.1909 26.492 13.654C26.492 12.2141 26.2297 11.1891 25.705 10.5789C25.4243 10.2617 25.0765 10.0298 24.6617 9.88339C24.2468 9.72475 23.8319 9.64544 23.417 9.64544C22.6849 9.64544 22.0259 9.86508 21.4402 10.3044C20.8545 10.7437 20.2688 11.5124 19.683 12.6107C19.2803 13.3672 18.9387 14.3068 18.658 15.4294C18.3896 16.5399 18.2553 17.6747 18.2553 18.8339C18.2553 20.2006 18.475 21.0975 18.9143 21.5246C19.3658 21.9517 19.9149 22.1652 20.5616 22.1652C21.1717 22.1652 21.7453 21.97 22.2822 21.5795C22.8191 21.189 23.2645 20.6948 23.6183 20.0969C23.9844 19.499 24.2285 18.9072 24.3505 18.3214L24.5518 17.3513C24.564 17.3025 24.5701 17.2354 24.5701 17.15C24.5701 16.9548 24.442 16.8571 24.1858 16.8571H22.3554L22.5018 16.2714H28.176L28.0296 16.8571H26.8581C26.5286 16.8571 26.3151 17.0219 26.2175 17.3513L25.101 22.6777H24.6434V21.3965C24.6434 20.8962 24.5518 20.646 24.3688 20.646C24.2712 20.646 24.1675 20.6887 24.0576 20.7741C23.9478 20.8596 23.8258 20.9816 23.6916 21.1402C22.6788 22.214 21.5744 22.751 20.3786 22.751Z" fill="#1A1A1A"/>
<path d="M28.766 22.6411C28.4365 22.6411 28.162 22.5374 27.9423 22.33C27.7349 22.1103 27.6312 21.8358 27.6312 21.5063C27.6312 21.1768 27.7349 20.9084 27.9423 20.7009C28.162 20.4813 28.4365 20.3715 28.766 20.3715C29.0955 20.3715 29.3639 20.4813 29.5714 20.7009C29.791 20.9084 29.9008 21.1768 29.9008 21.5063C29.9008 21.8358 29.791 22.1103 29.5714 22.33C29.3639 22.5374 29.0955 22.6411 28.766 22.6411Z" fill="#1A1A1A"/>
</svg>
