<svg width="666" height="334" viewBox="0 0 666 334" fill="none" xmlns="http://www.w3.org/2000/svg">
<path d="M166.552 136.243H173.893C179.315 136.243 184.143 134.854 188.375 132.077C192.739 129.3 196.112 125.927 198.493 121.959L280.03 1.34021H284.791V127.712C285.055 131.019 285.981 133.267 287.568 134.458C289.155 135.648 291.404 136.243 294.313 136.243H305.423L303.836 142.592H245.114L246.701 136.243H259.001C261.778 136.243 263.828 135.648 265.151 134.458C266.605 133.267 267.333 130.821 267.333 127.117V94.1852H225.87L212.38 114.024C207.883 120.504 205.635 125.663 205.635 129.498C205.635 133.995 208.28 136.243 213.57 136.243H224.481L222.894 142.592H164.965L166.552 136.243ZM230.235 87.8368H267.333V33.0821L230.235 87.8368Z" fill="#1A1A1A"/>
<path d="M306.522 144.972C304.406 144.972 302.686 144.179 301.364 142.592C300.041 141.137 299.38 139.153 299.38 136.64C299.38 127.382 302.819 119.182 309.696 112.04C316.574 104.766 324.443 99.2771 333.304 95.5739C344.943 90.8126 353.143 86.8448 357.904 83.6707C362.798 80.4965 366.104 76.8594 367.823 72.7594L367.427 71.9658C363.856 74.611 360.483 75.9336 357.309 75.9336C354.532 75.9336 352.151 75.5368 350.167 74.7433C348.315 73.8175 346.265 72.4949 344.017 70.7755C342.165 69.3207 340.512 68.2626 339.057 67.6013C337.735 66.8078 336.148 66.411 334.296 66.411C328.609 66.411 324.112 68.3288 320.806 72.1642C317.632 75.9997 314.986 80.5626 312.87 85.8529L309.696 84.4642C311.68 77.0578 315.053 69.8497 319.814 62.8401C324.707 55.6981 330.461 52.1272 337.073 52.1272C340.644 52.1272 343.753 53.1852 346.398 55.3014C349.043 57.2852 351.556 59.9965 353.936 63.4352C355.656 65.6836 357.044 67.3368 358.102 68.3949C359.293 69.453 360.483 69.982 361.673 69.982C363.525 69.982 364.914 69.6513 365.84 68.99C366.898 68.3288 367.427 67.4691 367.427 66.411C367.427 65.7497 367.294 65.2207 367.03 64.8239C366.898 64.4272 366.435 64.0304 365.641 63.6336C364.848 63.2368 364.12 62.5756 363.459 61.6497C362.798 60.7239 362.467 59.6659 362.467 58.4756C362.467 56.624 362.93 55.103 363.856 53.9127C364.782 52.7223 366.17 52.1272 368.022 52.1272C370.535 52.1272 372.386 53.053 373.577 54.9046C374.899 56.624 375.561 58.8723 375.561 61.6497C375.561 66.0143 374.04 70.6433 370.998 75.5368C367.956 80.4303 363.79 85.0594 358.499 89.4239C353.341 93.6561 347.72 97.0948 341.636 99.74C332.378 103.708 325.567 106.816 321.203 109.064C316.97 111.18 313.928 113.164 312.077 115.016C310.357 116.735 309.233 118.851 308.704 121.364C314.259 122.819 319.285 124.737 323.782 127.117C327.088 128.837 330.13 130.159 332.907 131.085C335.817 131.879 339.057 132.275 342.628 132.275C348.58 132.275 353.407 129.895 357.111 125.133C360.946 120.372 363.856 114.883 365.84 108.667L369.609 110.254C366.699 120.042 362.996 128.308 358.499 135.053C354.003 141.666 347.985 144.972 340.446 144.972C335.553 144.972 331.453 143.98 328.146 141.996C324.84 139.88 321.665 137.037 318.624 133.466C316.904 131.482 315.383 130.027 314.061 129.101C312.87 128.043 311.614 127.514 310.291 127.514C307.514 127.514 306.125 128.572 306.125 130.688C306.125 132.143 307.117 133.201 309.101 133.862C311.349 134.788 312.474 136.442 312.474 138.822C312.474 140.542 311.945 141.996 310.886 143.187C309.961 144.377 308.506 144.972 306.522 144.972Z" fill="#1A1A1A"/>
<path d="M388.342 144.972C381.333 144.972 375.844 142.525 371.876 137.632C368.041 132.606 366.123 125.993 366.123 117.793C366.123 109.725 367.314 101.988 369.694 94.5819C372.075 87.0432 374.786 80.8932 377.828 76.132C382.457 68.8578 387.813 63.0385 393.897 58.6739C400.113 54.3094 406.396 52.1272 412.744 52.1272C416.844 52.1272 420.547 53.582 423.854 56.4917C427.16 59.2691 429.541 63.6336 430.996 69.5852L431.789 69.982L436.154 54.5078H449.247L432.384 117C430.533 124.406 429.607 129.696 429.607 132.871C429.607 134.722 429.871 136.111 430.4 137.037C430.929 137.83 431.855 138.227 433.178 138.227C436.749 138.227 440.452 135.317 444.288 129.498C448.123 123.546 451.628 115.875 454.802 106.485L458.77 107.675C455.331 117.859 451.099 126.654 446.073 134.061C441.179 141.335 435.691 144.972 429.607 144.972C421.936 144.972 418.1 138.227 418.1 124.737C418.1 123.017 418.1 121.761 418.1 120.967C418.233 120.042 418.299 119.513 418.299 119.38L417.704 118.983C414.926 124.935 410.826 130.754 405.404 136.442C400.113 142.129 394.426 144.972 388.342 144.972ZM389.533 140.211C394.426 140.211 399.122 137.764 403.618 132.871C408.115 127.845 412.281 121.166 416.117 112.833C418.762 106.882 421.076 100.269 423.06 92.9948C425.044 85.7206 426.036 79.7691 426.036 75.14C426.036 69.3207 424.846 64.8239 422.465 61.6497C420.084 58.4756 416.844 56.8885 412.744 56.8885C408.644 56.8885 404.742 59.1368 401.039 63.6336C397.336 68.1304 394.162 73.2884 391.517 79.1078C388.21 86.5142 385.499 94.3835 383.383 102.716C381.399 111.048 380.407 118.719 380.407 125.729C380.407 129.696 381.068 133.135 382.391 136.045C383.846 138.822 386.226 140.211 389.533 140.211Z" fill="#1A1A1A"/>
<path d="M470.898 144.972C463.888 144.972 458.399 142.525 454.432 137.632C450.596 132.606 448.678 125.993 448.678 117.793C448.678 109.858 450.133 102.054 453.043 94.3835C456.085 86.5803 459.325 79.9674 462.764 74.5449C467.128 67.5352 472.286 62.0465 478.238 58.0788C484.322 54.1111 490.406 52.1272 496.49 52.1272C500.457 52.1272 504.028 53.6481 507.202 56.6901C510.377 59.732 512.493 64.0304 513.551 69.5852L514.344 69.982L530.414 10.466L530.612 9.07728C530.612 7.09341 529.488 6.10148 527.24 6.10148H509.781L511.17 1.34021H546.285L514.94 117C513.088 124.406 512.162 129.696 512.162 132.871C512.162 134.722 512.427 136.111 512.956 137.037C513.485 137.83 514.41 138.227 515.733 138.227C519.304 138.227 523.007 135.251 526.843 129.3C530.81 123.348 534.315 115.743 537.357 106.485L541.325 107.675C537.622 117.992 533.323 126.787 528.43 134.061C523.669 141.335 518.246 144.972 512.162 144.972C504.491 144.972 500.656 138.227 500.656 124.737C500.656 123.017 500.656 121.761 500.656 120.967C500.788 120.042 500.854 119.513 500.854 119.38L500.259 118.983C497.481 124.935 493.381 130.754 487.959 136.442C482.669 142.129 476.982 144.972 470.898 144.972ZM472.088 140.211C476.982 140.211 481.677 137.764 486.173 132.871C490.67 127.845 494.836 121.166 498.672 112.833C501.317 106.882 503.631 100.269 505.615 92.9948C507.599 85.7206 508.591 79.7691 508.591 75.14C508.591 69.3207 507.401 64.8239 505.02 61.6497C502.64 58.4756 499.399 56.8885 495.299 56.8885C491.199 56.8885 487.298 59.1368 483.594 63.6336C479.891 68.1304 476.717 73.2884 474.072 79.1078C470.765 86.5142 468.054 94.3835 465.938 102.716C463.954 111.048 462.962 118.719 462.962 125.729C462.962 129.696 463.623 133.135 464.946 136.045C466.401 138.822 468.782 140.211 472.088 140.211Z" fill="#1A1A1A"/>
<path d="M574.906 26.3369C571.997 26.3369 569.55 25.345 567.566 23.3611C565.582 21.3773 564.59 18.9305 564.59 16.0208C564.59 12.9789 565.582 10.5321 567.566 8.68051C569.55 6.69664 571.997 5.7047 574.906 5.7047C577.948 5.7047 580.395 6.69664 582.247 8.68051C584.231 10.5321 585.223 12.9789 585.223 16.0208C585.223 18.9305 584.231 21.3773 582.247 23.3611C580.395 25.345 577.948 26.3369 574.906 26.3369ZM553.679 144.972C550.108 144.972 547.066 143.385 544.553 140.211C542.173 137.037 540.982 132.275 540.982 125.927C540.982 123.017 541.379 119.579 542.173 115.611C542.966 111.511 543.892 108.204 544.95 105.692L557.647 76.132C558.308 74.6771 558.969 72.7594 559.631 70.3788C560.424 67.9981 560.821 66.0142 560.821 64.4272C560.821 62.5755 560.424 61.0546 559.631 59.8643C558.969 58.6739 557.911 58.0788 556.457 58.0788C551.96 58.0788 547.595 61.5175 543.363 68.3949C539.263 75.2723 535.758 82.6787 532.849 90.6142L528.881 89.4239C532.452 78.8433 536.816 69.982 541.974 62.8401C547.132 55.6981 552.687 52.1272 558.639 52.1272C562.077 52.1272 564.987 53.7804 567.368 57.0869C569.881 60.3933 571.137 65.0884 571.137 71.1723C571.137 74.082 570.74 77.6529 569.947 81.8852C569.153 85.9852 568.227 89.1594 567.169 91.4077L554.473 120.967C553.811 122.422 553.084 124.34 552.29 126.721C551.629 129.101 551.298 131.085 551.298 132.672C551.298 134.524 551.695 136.045 552.489 137.235C553.282 138.425 554.407 139.021 555.861 139.021C560.358 139.021 564.657 135.582 568.757 128.704C572.857 121.827 576.361 114.421 579.271 106.485L583.239 107.675C579.668 118.388 575.303 127.316 570.145 134.458C565.119 141.467 559.631 144.972 553.679 144.972Z" fill="#1A1A1A"/>
<path d="M234.004 315.162C226.333 315.162 219.257 312.98 212.777 308.616C206.428 304.251 201.336 298.035 197.501 289.967C193.798 281.9 191.946 272.443 191.946 261.598C191.946 246.388 195.583 231.443 202.857 216.763C210.264 202.082 219.786 190.113 231.425 180.855C243.196 171.464 255.297 166.769 267.73 166.769C278.178 166.769 287.436 170.34 295.504 177.482C297.752 179.598 299.405 181.053 300.463 181.847C301.654 182.508 302.844 182.839 304.034 182.839C308.134 182.839 311.044 178.011 312.763 168.356H317.326L304.63 229.063H300.067C300.199 226.55 300.265 222.384 300.265 216.564C300.265 200.958 297.421 189.848 291.734 183.235C288.692 179.797 284.923 177.284 280.426 175.697C275.93 173.977 271.433 173.118 266.936 173.118C259.001 173.118 251.859 175.498 245.51 180.26C239.162 185.021 232.814 193.353 226.465 205.256C222.101 213.456 218.397 223.64 215.356 235.808C212.446 247.843 210.991 260.143 210.991 272.708C210.991 287.521 213.372 297.242 218.133 301.871C223.026 306.5 228.978 308.814 235.988 308.814C242.601 308.814 248.817 306.698 254.636 302.466C260.455 298.233 265.283 292.877 269.118 286.396C273.086 279.916 275.731 273.501 277.054 267.153L279.236 256.638C279.368 256.109 279.434 255.382 279.434 254.456C279.434 252.34 278.046 251.282 275.268 251.282H255.43L257.017 244.934H318.517L316.93 251.282H304.233C300.662 251.282 298.347 253.067 297.289 256.638L285.188 314.369H280.228V300.482C280.228 295.059 279.236 292.348 277.252 292.348C276.194 292.348 275.07 292.811 273.88 293.737C272.689 294.662 271.367 295.985 269.912 297.704C258.934 309.343 246.965 315.162 234.004 315.162Z" fill="#1A1A1A"/>
<path d="M327.292 313.972C320.282 313.972 314.794 311.525 310.826 306.632C306.991 301.606 305.073 294.993 305.073 286.793C305.073 278.725 306.263 270.988 308.644 263.582C311.024 256.043 313.736 249.893 316.778 245.132C321.407 237.858 326.763 232.038 332.847 227.674C339.063 223.309 345.345 221.127 351.694 221.127C355.794 221.127 359.497 222.582 362.803 225.492C366.11 228.269 368.49 232.634 369.945 238.585L370.739 238.982L375.103 223.508H388.197L371.334 286C369.482 293.406 368.557 298.696 368.557 301.871C368.557 303.722 368.821 305.111 369.35 306.037C369.879 306.83 370.805 307.227 372.128 307.227C375.698 307.227 379.402 304.317 383.237 298.498C387.073 292.546 390.577 284.875 393.752 275.485L397.719 276.675C394.281 286.859 390.048 295.654 385.023 303.061C380.129 310.335 374.64 313.972 368.557 313.972C360.886 313.972 357.05 307.227 357.05 293.737C357.05 292.017 357.05 290.761 357.05 289.967C357.182 289.042 357.249 288.513 357.249 288.38L356.653 287.983C353.876 293.935 349.776 299.754 344.353 305.441C339.063 311.129 333.376 313.972 327.292 313.972ZM328.482 309.211C333.376 309.211 338.071 306.764 342.568 301.871C347.065 296.845 351.231 290.166 355.066 281.833C357.711 275.882 360.026 269.269 362.01 261.995C363.994 254.721 364.986 248.769 364.986 244.14C364.986 238.321 363.795 233.824 361.415 230.65C359.034 227.476 355.794 225.888 351.694 225.888C347.594 225.888 343.692 228.137 339.989 232.634C336.286 237.13 333.111 242.288 330.466 248.108C327.16 255.514 324.449 263.384 322.332 271.716C320.349 280.048 319.357 287.719 319.357 294.729C319.357 298.696 320.018 302.135 321.341 305.045C322.795 307.822 325.176 309.211 328.482 309.211Z" fill="#1A1A1A"/>
<path d="M404.292 313.972C399.928 313.972 396.357 312.517 393.58 309.608C390.934 306.566 389.612 302.466 389.612 297.308C389.612 292.282 390.339 286.859 391.794 281.04L406.078 229.063H392.389L393.778 223.508H407.665L420.56 175.895H433.654L420.759 223.508H443.176L441.788 229.063H419.171L402.705 290.166C402.309 291.488 401.912 293.34 401.515 295.721C401.251 297.969 401.118 299.821 401.118 301.275C401.118 302.466 401.581 303.722 402.507 305.045C403.433 306.367 404.888 307.029 406.872 307.029C408.591 307.029 410.31 306.5 412.03 305.441C415.071 303.325 417.651 299.754 419.767 294.729C422.015 289.571 424.197 283.156 426.313 275.485L430.281 276.675C427.636 287.917 424.33 296.977 420.362 303.854C416.394 310.6 411.038 313.972 404.292 313.972Z" fill="#1A1A1A"/>
<path d="M486.288 313.972C482.717 313.972 479.675 312.385 477.162 309.211C474.782 306.037 473.591 301.275 473.591 294.927C473.591 292.017 473.988 288.579 474.782 284.611C475.575 280.511 476.501 277.204 477.559 274.692L490.256 245.132C490.917 243.677 491.578 241.759 492.24 239.379C493.033 236.998 493.43 235.014 493.43 233.427C493.43 231.576 493.033 230.055 492.24 228.864C491.578 227.674 490.52 227.079 489.066 227.079C481.13 227.079 472.732 234.551 463.87 249.496C458.58 258.49 453.819 267.417 449.587 276.279C445.487 285.14 442.577 292.546 440.858 298.498L436.89 311.591H423.796L459.903 179.466C460.167 178.408 460.299 177.747 460.299 177.482C460.299 175.895 459.109 175.101 456.729 175.101H439.271L440.659 170.34H475.774L449.587 265.367L450.38 265.963L453.158 261.003C458.977 249.761 464.862 240.305 470.814 232.634C476.898 224.963 483.577 221.127 490.851 221.127C494.819 221.127 497.927 222.78 500.175 226.087C502.556 229.261 503.746 233.956 503.746 240.172C503.746 243.082 503.349 246.653 502.556 250.885C501.762 254.985 500.837 258.159 499.778 260.408L487.082 289.967C486.42 291.422 485.693 293.34 484.899 295.721C484.238 298.101 483.908 300.085 483.908 301.672C483.908 303.524 484.304 305.045 485.098 306.235C485.891 307.425 487.016 308.021 488.47 308.021C492.967 308.021 497.266 304.582 501.366 297.704C505.466 290.827 508.97 283.421 511.88 275.485L515.848 276.675C512.277 287.388 507.912 296.316 502.754 303.458C497.728 310.467 492.24 313.972 486.288 313.972Z" fill="#1A1A1A"/>
<path d="M528.885 313.972C524.918 313.972 521.744 312.385 519.363 309.211C517.115 305.904 515.99 301.143 515.99 294.927C515.99 292.017 516.387 288.512 517.181 284.413C517.974 280.18 518.9 276.94 519.958 274.692L532.655 245.132C533.316 243.677 533.977 241.759 534.639 239.379C535.432 236.998 535.829 235.014 535.829 233.427C535.829 231.576 535.432 230.055 534.639 228.864C533.845 227.674 532.721 227.079 531.266 227.079C526.769 227.079 522.471 230.517 518.371 237.395C514.271 244.272 510.766 251.679 507.856 259.614L503.889 258.424C507.46 247.711 511.758 238.85 516.784 231.84C521.942 224.698 527.497 221.127 533.448 221.127C537.019 221.127 539.995 222.714 542.376 225.888C544.889 229.063 546.145 233.824 546.145 240.172C546.145 243.082 545.748 246.587 544.955 250.687C544.161 254.655 543.235 257.895 542.177 260.408L529.481 289.967C528.819 291.422 528.092 293.34 527.298 295.721C526.637 298.101 526.306 300.085 526.306 301.672C526.306 303.524 526.637 305.045 527.298 306.235C528.092 307.425 529.216 308.021 530.671 308.021C538.606 308.021 547.005 300.548 555.866 285.603C561.156 276.609 565.852 267.682 569.952 258.821C574.184 249.959 577.16 242.553 578.879 236.601L582.847 223.508H595.94L579.276 285.008C577.292 292.943 576.3 298.564 576.3 301.871C576.3 303.722 576.564 305.111 577.093 306.037C577.622 306.83 578.614 307.227 580.069 307.227C583.772 307.227 587.476 304.185 591.179 298.101C595.014 291.885 598.453 284.346 601.495 275.485L605.463 276.675C596.734 301.54 587.013 313.972 576.3 313.972C568.629 313.972 564.793 307.227 564.793 293.737C564.793 291.092 565.389 287.058 566.579 281.635C567.901 276.08 569.026 272.113 569.952 269.732L569.356 269.137L566.579 274.096C560.76 285.338 554.808 294.795 548.724 302.466C542.773 310.137 536.16 313.972 528.885 313.972Z" fill="#1A1A1A"/>
<path d="M639.638 195.337C636.728 195.337 634.281 194.345 632.298 192.361C630.314 190.377 629.322 187.93 629.322 185.021C629.322 181.979 630.314 179.532 632.298 177.681C634.281 175.697 636.728 174.705 639.638 174.705C642.68 174.705 645.127 175.697 646.978 177.681C648.962 179.532 649.954 181.979 649.954 185.021C649.954 187.93 648.962 190.377 646.978 192.361C645.127 194.345 642.68 195.337 639.638 195.337ZM618.411 313.972C614.84 313.972 611.798 312.385 609.285 309.211C606.904 306.037 605.714 301.275 605.714 294.927C605.714 292.017 606.111 288.579 606.904 284.611C607.698 280.511 608.623 277.204 609.682 274.692L622.378 245.132C623.04 243.677 623.701 241.759 624.362 239.379C625.156 236.998 625.552 235.014 625.552 233.427C625.552 231.576 625.156 230.055 624.362 228.864C623.701 227.674 622.643 227.079 621.188 227.079C616.691 227.079 612.327 230.517 608.094 237.395C603.994 244.272 600.49 251.679 597.58 259.614L593.612 258.424C597.183 247.843 601.548 238.982 606.706 231.84C611.864 224.698 617.419 221.127 623.37 221.127C626.809 221.127 629.719 222.78 632.099 226.087C634.612 229.393 635.869 234.088 635.869 240.172C635.869 243.082 635.472 246.653 634.678 250.885C633.885 254.985 632.959 258.159 631.901 260.408L619.204 289.967C618.543 291.422 617.815 293.34 617.022 295.721C616.361 298.101 616.03 300.085 616.03 301.672C616.03 303.524 616.427 305.045 617.22 306.235C618.014 307.425 619.138 308.021 620.593 308.021C625.09 308.021 629.388 304.582 633.488 297.704C637.588 290.827 641.093 283.421 644.002 275.485L647.97 276.675C644.399 287.388 640.035 296.316 634.877 303.458C629.851 310.467 624.362 313.972 618.411 313.972Z" fill="#1A1A1A"/>
<path d="M653.125 313.972C649.554 313.972 646.578 312.848 644.198 310.6C641.949 308.219 640.825 305.243 640.825 301.672C640.825 298.101 641.949 295.192 644.198 292.943C646.578 290.563 649.554 289.372 653.125 289.372C656.696 289.372 659.606 290.563 661.854 292.943C664.235 295.192 665.425 298.101 665.425 301.672C665.425 305.243 664.235 308.219 661.854 310.6C659.606 312.848 656.696 313.972 653.125 313.972Z" fill="#1A1A1A"/>
<path fill-rule="evenodd" clip-rule="evenodd" d="M0.37793 155.568L91.4928 0L247.061 91.1149L155.946 246.683L0.37793 155.568ZM3.11449 154.853L155.231 243.947L244.324 91.8299L92.2078 2.73656L3.11449 154.853Z" fill="#1A1A1A"/>
<path fill-rule="evenodd" clip-rule="evenodd" d="M251.331 25.0495L367.009 218.178L173.88 333.855L58.2026 140.727L251.331 25.0495ZM250.643 27.7929L60.946 141.415L174.568 331.112L364.265 217.49L250.643 27.7929Z" fill="#1A1A1A"/>
</svg>
