<svg width="542" height="98" viewBox="0 0 542 98" fill="none" xmlns="http://www.w3.org/2000/svg">
<path d="M22.1115 96C21.0875 96 20.5755 95.5733 20.5755 94.72C20.5755 93.952 21.2582 93.3973 22.6235 93.056L24.6715 92.672C26.3782 92.3307 27.8715 91.52 29.1515 90.24C30.3462 88.8747 31.4982 86.9973 32.6075 84.608L70.8795 4.60799C71.3062 3.75466 71.7328 3.19999 72.1595 2.94399C72.5862 2.688 72.9702 2.56 73.3115 2.56C73.7382 2.56 74.0795 2.688 74.3355 2.94399C74.6768 3.19999 74.8475 3.75466 74.8475 4.60799L76.2555 85.76C76.3408 88.1493 76.6395 89.8133 77.1515 90.752C77.6635 91.6053 78.7302 92.2453 80.3515 92.672L82.0155 93.056C83.0395 93.312 83.5515 93.824 83.5515 94.592C83.5515 95.5307 82.8262 96 81.3755 96H60.2555C59.1462 96 58.5915 95.5733 58.5915 94.72C58.5915 93.7813 59.4448 93.2267 61.1515 93.056L63.7115 92.8C65.1622 92.6293 66.1435 92.16 66.6555 91.392C67.2528 90.624 67.5515 89.3013 67.5515 87.424L67.2955 67.584C67.2955 65.3653 66.1435 64.256 63.8395 64.256H50.1435C47.9248 64.256 46.2608 65.3653 45.1515 67.584L36.8315 84.736C34.5275 89.6 35.2955 92.288 39.1355 92.8L40.9275 93.056C42.2075 93.2267 42.8475 93.7387 42.8475 94.592C42.8475 95.5307 42.1222 96 40.6715 96H22.1115ZM50.6555 60.416H64.9915C66.4422 60.416 67.1675 59.6907 67.1675 58.24L66.9115 23.296H66.2715L49.5035 58.24C49.1622 58.8373 49.1195 59.3493 49.3755 59.776C49.6315 60.2027 50.0582 60.416 50.6555 60.416ZM77.0275 97.152C75.9182 97.152 75.3635 96.512 75.3635 95.232C75.3635 93.6107 76.0462 92.032 77.4115 90.496C78.8622 88.8747 80.6968 87.424 82.9155 86.144L114.275 44.672C114.702 43.9893 114.787 43.5627 114.531 43.392C114.361 43.136 113.977 43.136 113.379 43.392C112.355 43.8187 111.161 44.032 109.795 44.032C107.577 44.032 105.443 43.6053 103.395 42.752C101.433 41.8133 99.5982 40.9173 97.8915 40.064C96.1848 39.2107 94.5208 38.784 92.8995 38.784C90.4248 38.784 88.5902 39.9787 87.3955 42.368C86.2008 44.672 85.6035 48.384 85.6035 53.504C85.6035 54.6133 85.0915 55.168 84.0675 55.168C83.0435 55.168 82.5315 54.4 82.5315 52.864C82.5315 46.976 83.2142 42.368 84.5795 39.04C86.0302 35.712 87.8222 33.3653 89.9555 32C92.0888 30.6347 94.2648 29.952 96.4835 29.952C98.9582 29.952 101.006 30.4213 102.627 31.36C104.249 32.2987 105.699 33.408 106.979 34.688C108.259 35.8827 109.625 36.9493 111.075 37.888C112.526 38.8267 114.403 39.296 116.707 39.296C117.731 39.296 118.414 38.784 118.755 37.76C119.694 35.7973 120.889 34.0053 122.339 32.384C123.79 30.7627 125.155 29.952 126.435 29.952C127.801 29.952 128.483 30.6347 128.483 32C128.483 33.1947 128.014 34.2613 127.076 35.2C126.222 36.1387 124.985 37.2907 123.363 38.656C121.827 40.0213 120.078 42.0267 118.115 44.672L89.0595 83.328C88.7182 83.7547 88.6755 84.1387 88.9315 84.48C89.1875 84.736 89.6142 84.736 90.2115 84.48C91.2355 84.0533 92.3875 83.84 93.6675 83.84C95.5448 83.84 97.5075 84.224 99.5555 84.992C101.603 85.6747 103.609 86.4 105.571 87.168C107.619 87.936 109.411 88.32 110.947 88.32C113.422 88.32 115.257 87.2107 116.451 84.992C117.646 82.688 118.243 78.976 118.243 73.856C118.243 72.7467 118.755 72.192 119.779 72.192C120.803 72.192 121.315 72.96 121.315 74.496C121.315 80.2133 120.59 84.736 119.139 88.064C117.774 91.392 116.025 93.7387 113.891 95.104C111.758 96.4693 109.582 97.152 107.363 97.152C105.059 97.152 103.054 96.7253 101.347 95.872C99.6408 94.9333 98.0622 93.9093 96.6115 92.8C95.2462 91.6907 93.9235 90.7093 92.6435 89.856C91.3635 89.0027 89.9555 88.576 88.4195 88.576C86.4568 88.576 85.0915 89.2587 84.3235 90.624C83.4702 92.416 82.3182 93.952 80.8675 95.232C79.5022 96.512 78.2222 97.152 77.0275 97.152ZM126.149 97.152C123.078 97.152 120.688 95.8293 118.981 93.184C117.275 90.5387 116.421 86.656 116.421 81.536C116.421 76.672 117.104 71.808 118.469 66.944C119.835 61.9947 121.712 57.3013 124.102 52.864C126.491 48.4267 129.179 44.5013 132.166 41.088C135.238 37.6747 138.438 34.9867 141.766 33.024C145.179 30.976 148.55 29.952 151.878 29.952C153.499 29.952 155.035 30.2933 156.486 30.976C157.936 31.5733 159.131 32.5547 160.069 33.92C160.582 34.688 161.094 35.072 161.606 35.072C162.118 35.072 162.63 34.688 163.142 33.92C164.08 32.5547 164.848 31.7013 165.446 31.36C166.043 30.9333 166.598 30.72 167.11 30.72C168.219 30.72 168.646 31.3173 168.39 32.512L156.998 81.536C155.718 87.0827 156.571 89.856 159.558 89.856C161.52 89.856 163.27 88.5333 164.806 85.888C166.427 83.2427 168.048 79.1467 169.67 73.6C169.926 72.6613 170.48 72.192 171.334 72.192C171.931 72.192 172.315 72.448 172.486 72.96C172.656 73.472 172.656 74.0693 172.486 74.752C170.864 82.7733 168.688 88.5333 165.958 92.032C163.227 95.4453 159.942 97.152 156.102 97.152C152.774 97.152 150.384 95.744 148.934 92.928C147.568 90.112 147.44 86.272 148.549 81.408L150.214 74.368C150.384 73.7707 150.256 73.4293 149.83 73.344C149.488 73.2587 149.19 73.472 148.934 73.984C144.24 82.6027 140.059 88.6187 136.39 92.032C132.806 95.4453 129.392 97.152 126.149 97.152ZM129.35 90.624C131.398 90.624 133.659 89.3867 136.134 86.912C138.608 84.4373 141.04 81.2373 143.43 77.312C145.904 73.3867 148.166 69.1627 150.214 64.64C152.262 60.1173 153.883 55.7653 155.078 51.584C156.358 47.4027 156.998 43.8613 156.998 40.96C156.998 35.7547 155.163 33.152 151.493 33.152C149.275 33.152 146.928 34.176 144.454 36.224C141.979 38.1867 139.59 40.8747 137.286 44.288C135.067 47.7013 133.019 51.584 131.142 55.936C129.35 60.2027 127.899 64.6827 126.79 69.376C125.68 73.984 125.125 78.5067 125.125 82.944C125.125 85.9307 125.467 87.9787 126.149 89.088C126.918 90.112 127.984 90.624 129.35 90.624ZM175.383 97.152C172.225 97.152 169.793 95.8293 168.087 93.184C166.38 90.5387 165.527 86.656 165.527 81.536C165.527 76.672 166.209 71.808 167.575 66.944C168.94 61.9947 170.817 57.3013 173.207 52.864C175.596 48.4267 178.284 44.5013 181.271 41.088C184.343 37.6747 187.543 34.9867 190.871 33.024C194.284 30.976 197.655 29.952 200.983 29.952C203.287 29.952 205.292 30.5493 206.999 31.744C208.193 32.512 208.919 32.256 209.175 30.976L213.271 14.08C213.697 12.544 213.697 11.4773 213.271 10.88C212.929 10.2827 212.161 9.94133 210.967 9.856L207.127 9.47199C205.847 9.38666 205.292 8.832 205.463 7.808C205.633 7.04 206.231 6.57066 207.255 6.39999C210.327 5.888 213.057 5.29066 215.447 4.60799C217.836 3.83999 219.756 2.85866 221.207 1.66399C221.889 1.152 222.529 0.895996 223.127 0.895996C224.151 0.895996 224.535 1.536 224.279 2.81599L206.103 81.536C204.823 87.0827 205.676 89.856 208.663 89.856C210.625 89.856 212.375 88.5333 213.911 85.888C215.532 83.2427 217.153 79.1467 218.775 73.6C219.031 72.6613 219.585 72.192 220.439 72.192C221.036 72.192 221.42 72.448 221.591 72.96C221.761 73.472 221.761 74.0693 221.591 74.752C219.969 82.7733 217.708 88.5333 214.807 92.032C211.991 95.4453 208.663 97.152 204.823 97.152C201.495 97.152 199.105 95.744 197.655 92.928C196.289 90.112 196.161 86.272 197.271 81.408L198.679 75.52C198.849 74.9227 198.721 74.5813 198.295 74.496C197.953 74.4107 197.655 74.624 197.399 75.136C193.303 83.1573 189.42 88.832 185.751 92.16C182.081 95.488 178.625 97.152 175.383 97.152ZM178.455 90.624C180.503 90.624 182.764 89.3867 185.239 86.912C187.713 84.4373 190.145 81.2373 192.535 77.312C195.009 73.3867 197.271 69.1627 199.319 64.64C201.367 60.1173 202.988 55.7653 204.183 51.584C205.463 47.4027 206.103 43.8613 206.103 40.96C206.103 35.7547 204.268 33.152 200.599 33.152C198.38 33.152 196.033 34.176 193.559 36.224C191.084 38.1867 188.695 40.8747 186.391 44.288C184.172 47.7013 182.124 51.584 180.247 55.936C178.455 60.2027 177.004 64.6827 175.895 69.376C174.785 73.984 174.231 78.5067 174.231 82.944C174.231 85.9307 174.615 87.9787 175.383 89.088C176.236 90.112 177.26 90.624 178.455 90.624ZM239.08 18.56C237.458 18.56 236.093 18.0053 234.983 16.896C233.959 15.7013 233.448 14.2933 233.448 12.672C233.448 10.368 234.13 8.53333 235.496 7.168C236.946 5.80266 238.567 5.12 240.36 5.12C242.066 5.12 243.474 5.67466 244.583 6.784C245.778 7.80799 246.375 9.17333 246.375 10.88C246.375 13.2693 245.65 15.1467 244.2 16.512C242.749 17.8773 241.042 18.56 239.08 18.56ZM228.583 97.28C225.767 97.28 223.762 96.256 222.567 94.208C221.373 92.0747 221.33 88.6187 222.439 83.84L231.911 43.264C232.338 41.3867 232.381 39.936 232.039 38.912C231.784 37.8027 231.016 37.248 229.736 37.248C228.199 37.248 226.493 38.4 224.615 40.704C222.823 42.9227 220.775 47.1893 218.471 53.504C218.13 54.6133 217.533 55.168 216.679 55.168C215.399 55.168 215.058 54.4 215.655 52.864C217.533 46.976 219.495 42.368 221.543 39.04C223.677 35.712 225.81 33.3653 227.943 32C230.077 30.6347 232.039 29.952 233.831 29.952C236.818 29.952 238.909 31.0187 240.104 33.152C241.298 35.2 241.341 38.6133 240.232 43.392L230.76 83.968C230.333 85.8453 230.247 87.3387 230.503 88.448C230.845 89.472 231.655 89.984 232.935 89.984C234.471 89.984 236.135 88.8747 237.927 86.656C239.805 84.352 241.896 80.0427 244.2 73.728C244.541 72.6187 245.138 72.064 245.992 72.064C247.271 72.064 247.613 72.832 247.015 74.368C245.223 80.1707 243.218 84.7787 241 88.192C238.866 91.52 236.733 93.8667 234.6 95.232C232.466 96.5973 230.461 97.28 228.583 97.28ZM278.761 97.152C271.422 97.152 265.662 94.2933 261.481 88.576C257.299 82.7733 255.209 74.4533 255.209 63.616C255.209 59.0933 255.763 54.1013 256.873 48.64C258.067 43.1787 259.817 37.76 262.121 32.384C264.51 26.9227 267.454 21.9733 270.953 17.536C274.451 13.0133 278.59 9.38667 283.369 6.656C288.147 3.92533 293.523 2.56 299.497 2.56C303.251 2.56 306.451 2.90133 309.097 3.58399C311.742 4.18133 313.961 4.992 315.753 6.016C316.521 6.44267 316.777 7.33866 316.521 8.70399L312.681 28.16C312.425 29.6107 311.742 30.336 310.633 30.336C309.609 30.336 309.097 29.7813 309.097 28.672L308.969 24.96C308.713 17.6213 307.774 12.6293 306.153 9.98399C304.617 7.25333 302.185 5.88799 298.857 5.88799C294.931 5.88799 291.347 6.95466 288.105 9.088C284.947 11.2213 282.046 14.08 279.401 17.664C276.841 21.248 274.579 25.216 272.617 29.568C270.739 33.92 269.161 38.3573 267.881 42.88C266.686 47.4027 265.747 51.6693 265.065 55.68C264.467 59.6907 264.169 63.104 264.169 65.92C264.169 75.2213 265.534 82.2187 268.265 86.912C271.081 91.52 274.707 93.824 279.145 93.824C281.875 93.824 284.307 93.056 286.441 91.52C288.574 89.8987 290.11 86.9973 291.049 82.816L297.449 54.784C297.875 53.0773 297.918 51.8827 297.577 51.2C297.321 50.432 296.211 49.9627 294.249 49.792L289.769 49.28C288.659 49.1947 288.105 48.7253 288.105 47.872C288.105 46.848 288.873 46.336 290.409 46.336H313.577C314.686 46.336 315.241 46.7627 315.241 47.616C315.241 48.5547 314.601 49.1093 313.321 49.28L311.401 49.536C309.523 49.792 308.286 50.304 307.689 51.072C307.177 51.84 306.707 53.12 306.281 54.912L298.857 87.04C298.686 87.9787 298.217 88.8747 297.449 89.728C296.766 90.5813 295.657 91.4773 294.121 92.416C291.987 93.696 289.683 94.8053 287.209 95.744C284.734 96.6827 281.918 97.152 278.761 97.152ZM312.674 97.152C309.602 97.152 307.213 95.8293 305.506 93.184C303.8 90.5387 302.946 86.656 302.946 81.536C302.946 76.672 303.629 71.808 304.994 66.944C306.36 61.9947 308.237 57.3013 310.626 52.864C313.016 48.4267 315.704 44.5013 318.69 41.088C321.762 37.6747 324.962 34.9867 328.29 33.024C331.704 30.976 335.074 29.952 338.402 29.952C340.024 29.952 341.56 30.2933 343.01 30.976C344.461 31.5733 345.656 32.5547 346.594 33.92C347.106 34.688 347.618 35.072 348.13 35.072C348.642 35.072 349.154 34.688 349.666 33.92C350.605 32.5547 351.373 31.7013 351.97 31.36C352.568 30.9333 353.122 30.72 353.634 30.72C354.744 30.72 355.17 31.3173 354.914 32.512L343.522 81.536C342.242 87.0827 343.096 89.856 346.082 89.856C348.045 89.856 349.794 88.5333 351.33 85.888C352.952 83.2427 354.573 79.1467 356.194 73.6C356.45 72.6613 357.005 72.192 357.858 72.192C358.456 72.192 358.84 72.448 359.01 72.96C359.181 73.472 359.181 74.0693 359.01 74.752C357.389 82.7733 355.213 88.5333 352.482 92.032C349.752 95.4453 346.466 97.152 342.626 97.152C339.298 97.152 336.909 95.744 335.458 92.928C334.093 90.112 333.965 86.272 335.074 81.408L336.738 74.368C336.909 73.7707 336.781 73.4293 336.354 73.344C336.013 73.2587 335.714 73.472 335.458 73.984C330.765 82.6027 326.584 88.6187 322.914 92.032C319.33 95.4453 315.917 97.152 312.674 97.152ZM315.874 90.624C317.922 90.624 320.184 89.3867 322.658 86.912C325.133 84.4373 327.565 81.2373 329.954 77.312C332.429 73.3867 334.69 69.1627 336.738 64.64C338.786 60.1173 340.408 55.7653 341.602 51.584C342.882 47.4027 343.522 43.8613 343.522 40.96C343.522 35.7547 341.688 33.152 338.018 33.152C335.8 33.152 333.453 34.176 330.978 36.224C328.504 38.1867 326.114 40.8747 323.81 44.288C321.592 47.7013 319.544 51.584 317.666 55.936C315.874 60.2027 314.424 64.6827 313.314 69.376C312.205 73.984 311.65 78.5067 311.65 82.944C311.65 85.9307 311.992 87.9787 312.674 89.088C313.442 90.112 314.509 90.624 315.874 90.624ZM361.944 97.152C359.042 97.152 356.781 96 355.16 93.696C353.538 91.392 353.282 87.68 354.392 82.56L365.016 36.224C365.272 34.944 364.76 34.304 363.48 34.304H358.616C357.421 34.304 356.824 33.7493 356.824 32.64C356.824 32.0427 357.037 31.5733 357.464 31.232C357.89 30.8907 358.402 30.72 359 30.72H363.608C365.57 30.72 366.722 29.824 367.064 28.032L370.136 14.336C370.392 13.3973 370.989 12.928 371.928 12.928H377.176C378.37 12.928 378.84 13.4827 378.584 14.592L375.384 28.8C375.128 30.08 375.64 30.72 376.92 30.72H384.216C385.666 30.72 386.392 31.2747 386.392 32.384C386.392 33.664 385.496 34.304 383.704 34.304H376.792C374.914 34.304 373.762 35.2 373.336 36.992L362.584 83.84C362.157 85.7173 362.2 87.2107 362.712 88.32C363.309 89.344 364.29 89.856 365.656 89.856C367.618 89.856 369.41 88.7467 371.032 86.528C372.738 84.3093 374.53 80.0853 376.408 73.856C376.749 72.7467 377.304 72.192 378.072 72.192C378.669 72.192 379.053 72.448 379.224 72.96C379.394 73.472 379.266 74.4107 378.84 75.776C377.218 81.5787 375.426 86.016 373.464 89.088C371.586 92.16 369.666 94.2933 367.704 95.488C365.741 96.5973 363.821 97.152 361.944 97.152ZM413.458 97.152C410.386 97.152 408.082 95.872 406.546 93.312C405.01 90.752 404.925 86.784 406.29 81.408L416.146 44.288C417.085 40.96 417.213 38.656 416.53 37.376C415.933 36.096 415.037 35.456 413.842 35.456C411.965 35.456 409.832 36.6507 407.442 39.04C405.138 41.344 402.706 44.544 400.146 48.64C397.672 52.6507 395.24 57.216 392.85 62.336C390.546 67.3707 388.413 72.704 386.45 78.336C384.488 83.8827 382.909 89.3013 381.714 94.592C381.458 95.5307 380.861 96 379.922 96H374.546C373.352 96 372.882 95.4453 373.138 94.336L391.826 14.08C392.253 12.544 392.253 11.4773 391.826 10.88C391.485 10.2827 390.717 9.94133 389.522 9.856L385.682 9.47199C384.402 9.38666 383.848 8.832 384.018 7.808C384.189 7.04 384.786 6.57066 385.81 6.39999C388.882 5.888 391.613 5.29066 394.002 4.60799C396.392 3.83999 398.312 2.85866 399.762 1.66399C400.445 1.152 401.085 0.895996 401.682 0.895996C402.706 0.895996 403.09 1.536 402.834 2.81599L390.29 57.216C390.205 57.8133 390.333 58.1547 390.674 58.24C391.016 58.3253 391.314 58.112 391.57 57.6C394.984 50.6027 398.226 45.0987 401.298 41.088C404.37 37.0773 407.229 34.2187 409.874 32.512C412.605 30.8053 415.08 29.952 417.298 29.952C420.456 29.952 422.76 31.232 424.21 33.792C425.661 36.352 425.661 40.2773 424.21 45.568L414.482 82.688C413.885 85.0773 413.842 86.8693 414.354 88.064C414.866 89.2587 415.805 89.856 417.17 89.856C418.877 89.856 420.541 88.7467 422.162 86.528C423.784 84.224 425.533 79.9147 427.41 73.6C427.666 72.6613 428.221 72.192 429.074 72.192C429.757 72.192 430.141 72.448 430.226 72.96C430.397 73.472 430.397 74.0693 430.226 74.752C428.605 80.5547 426.856 85.12 424.978 88.448C423.101 91.6907 421.181 93.952 419.218 95.232C417.341 96.512 415.421 97.152 413.458 97.152ZM436.317 97.152C433.16 97.152 430.984 95.744 429.789 92.928C428.68 90.0267 428.765 86.2293 430.045 81.536L440.157 44.416C440.84 41.9413 441.011 40.0213 440.669 38.656C440.328 37.2907 439.56 36.608 438.365 36.608C436.403 36.608 434.397 38.1013 432.349 41.088C430.387 44.0747 428.68 48.2133 427.229 53.504C426.973 54.4427 426.419 54.912 425.565 54.912C424.371 54.912 423.987 54.0587 424.413 52.352C426.376 45.184 428.936 39.68 432.093 35.84C435.336 31.9147 438.877 29.952 442.717 29.952C445.789 29.952 447.837 31.36 448.861 34.176C449.885 36.992 449.715 40.832 448.349 45.696L438.109 82.816C436.488 88.704 437.043 91.648 439.773 91.648C441.48 91.648 443.443 90.496 445.661 88.192C447.88 85.888 450.184 82.7307 452.573 78.72C455.048 74.7093 457.48 70.144 459.869 65.024C462.259 59.904 464.435 54.528 466.397 48.896C468.36 43.264 469.981 37.6747 471.261 32.128C471.517 31.1893 472.115 30.72 473.053 30.72H478.173C479.368 30.72 479.837 31.2747 479.581 32.384L467.549 83.84C466.611 87.8507 467.336 89.856 469.725 89.856C473.309 89.856 477.064 84.4373 480.989 73.6C481.331 72.4907 481.928 71.936 482.781 71.936C483.293 71.936 483.635 72.1493 483.805 72.576C484.061 73.0027 484.061 73.5573 483.805 74.24C481.501 81.4933 478.771 87.1253 475.613 91.136C472.456 95.1467 469.128 97.152 465.629 97.152C459.485 97.152 457.437 92.672 459.485 83.712L462.813 69.504C462.984 68.9067 462.856 68.5653 462.429 68.48C462.088 68.3947 461.789 68.608 461.533 69.12C456.584 79.36 452.019 86.6133 447.837 90.88C443.656 95.0613 439.816 97.152 436.317 97.152ZM501.19 18.56C499.568 18.56 498.203 18.0053 497.094 16.896C496.07 15.7013 495.558 14.2933 495.558 12.672C495.558 10.368 496.24 8.53333 497.606 7.168C499.056 5.80266 500.678 5.12 502.47 5.12C504.176 5.12 505.584 5.67466 506.694 6.784C507.888 7.80799 508.486 9.17333 508.486 10.88C508.486 13.2693 507.76 15.1467 506.31 16.512C504.859 17.8773 503.152 18.56 501.19 18.56ZM490.694 97.28C487.878 97.28 485.872 96.256 484.678 94.208C483.483 92.0747 483.44 88.6187 484.55 83.84L494.022 43.264C494.448 41.3867 494.491 39.936 494.15 38.912C493.894 37.8027 493.126 37.248 491.846 37.248C490.31 37.248 488.603 38.4 486.726 40.704C484.934 42.9227 482.886 47.1893 480.582 53.504C480.24 54.6133 479.643 55.168 478.79 55.168C477.51 55.168 477.168 54.4 477.766 52.864C479.643 46.976 481.606 42.368 483.654 39.04C485.787 35.712 487.92 33.3653 490.054 32C492.187 30.6347 494.15 29.952 495.942 29.952C498.928 29.952 501.019 31.0187 502.214 33.152C503.408 35.2 503.451 38.6133 502.342 43.392L492.87 83.968C492.443 85.8453 492.358 87.3387 492.614 88.448C492.955 89.472 493.766 89.984 495.046 89.984C496.582 89.984 498.246 88.8747 500.038 86.656C501.915 84.352 504.006 80.0427 506.31 73.728C506.651 72.6187 507.248 72.064 508.102 72.064C509.382 72.064 509.723 72.832 509.126 74.368C507.334 80.1707 505.328 84.7787 503.11 88.192C500.976 91.52 498.843 93.8667 496.71 95.232C494.576 96.5973 492.571 97.28 490.694 97.28Z" fill="#E6E6E6"/>
<path d="M102.052 4.083C102.743 4.083 103.35 4.23033 103.871 4.525C104.404 4.80833 104.812 5.21067 105.095 5.732C105.39 6.25333 105.537 6.854 105.537 7.534C105.537 8.214 105.39 8.809 105.095 9.319C104.8 9.829 104.381 10.2257 103.837 10.509C103.304 10.7923 102.687 10.934 101.984 10.934H98.992C98.9467 10.934 98.924 10.9567 98.924 11.002V15.83C98.924 15.9433 98.8673 16 98.754 16H97.462C97.3487 16 97.292 15.9433 97.292 15.83V4.253C97.292 4.13967 97.3487 4.083 97.462 4.083H102.052ZM101.831 9.608C102.454 9.608 102.953 9.421 103.327 9.047C103.712 8.673 103.905 8.18 103.905 7.568C103.905 6.94467 103.712 6.446 103.327 6.072C102.953 5.68667 102.454 5.494 101.831 5.494H98.992C98.9467 5.494 98.924 5.51667 98.924 5.562V9.54C98.924 9.58533 98.9467 9.608 98.992 9.608H101.831ZM111.347 16.153C110.52 16.153 109.789 15.983 109.154 15.643C108.519 15.303 108.026 14.827 107.675 14.215C107.324 13.5917 107.148 12.8777 107.148 12.073V8.027C107.148 7.22233 107.324 6.514 107.675 5.902C108.026 5.29 108.519 4.814 109.154 4.474C109.789 4.134 110.52 3.964 111.347 3.964C112.186 3.964 112.922 4.134 113.557 4.474C114.192 4.814 114.685 5.29 115.036 5.902C115.387 6.514 115.563 7.22233 115.563 8.027V12.073C115.563 12.8777 115.387 13.5917 115.036 14.215C114.685 14.827 114.192 15.303 113.557 15.643C112.922 15.983 112.186 16.153 111.347 16.153ZM111.347 14.742C112.118 14.742 112.741 14.504 113.217 14.028C113.693 13.552 113.931 12.923 113.931 12.141V8.01C113.931 7.21667 113.693 6.582 113.217 6.106C112.741 5.61867 112.118 5.375 111.347 5.375C110.576 5.375 109.953 5.61867 109.477 6.106C109.012 6.582 108.78 7.21667 108.78 8.01V12.141C108.78 12.923 109.012 13.552 109.477 14.028C109.953 14.504 110.576 14.742 111.347 14.742ZM124.829 16C124.739 16 124.676 15.9603 124.642 15.881L122.262 10.798C122.251 10.764 122.228 10.747 122.194 10.747H119.746C119.701 10.747 119.678 10.7697 119.678 10.815V15.83C119.678 15.9433 119.622 16 119.508 16H118.216C118.103 16 118.046 15.9433 118.046 15.83V4.27C118.046 4.15667 118.103 4.1 118.216 4.1H122.789C123.469 4.1 124.064 4.24167 124.574 4.525C125.096 4.80833 125.498 5.205 125.781 5.715C126.065 6.225 126.206 6.81433 126.206 7.483C126.206 8.27633 125.997 8.95067 125.577 9.506C125.169 10.05 124.597 10.4183 123.86 10.611C123.815 10.6337 123.804 10.662 123.826 10.696L126.291 15.796C126.303 15.8187 126.308 15.847 126.308 15.881C126.308 15.9603 126.263 16 126.172 16H124.829ZM119.746 5.511C119.701 5.511 119.678 5.53367 119.678 5.579V9.387C119.678 9.43233 119.701 9.455 119.746 9.455H122.585C123.186 9.455 123.668 9.27933 124.03 8.928C124.393 8.56533 124.574 8.08933 124.574 7.5C124.574 6.89933 124.393 6.41767 124.03 6.055C123.668 5.69233 123.186 5.511 122.585 5.511H119.746ZM136.021 4.1C136.134 4.1 136.191 4.15667 136.191 4.27V5.358C136.191 5.47133 136.134 5.528 136.021 5.528H132.757C132.711 5.528 132.689 5.55067 132.689 5.596V15.83C132.689 15.9433 132.632 16 132.519 16H131.227C131.113 16 131.057 15.9433 131.057 15.83V5.596C131.057 5.55067 131.034 5.528 130.989 5.528H127.878C127.764 5.528 127.708 5.47133 127.708 5.358V4.27C127.708 4.15667 127.764 4.1 127.878 4.1H136.021ZM146.105 5.341C146.105 5.45433 146.049 5.511 145.935 5.511H139.917C139.872 5.511 139.849 5.53367 139.849 5.579V9.234C139.849 9.27933 139.872 9.302 139.917 9.302H144.048C144.162 9.302 144.218 9.35867 144.218 9.472V10.543C144.218 10.6563 144.162 10.713 144.048 10.713H139.917C139.872 10.713 139.849 10.7357 139.849 10.781V15.83C139.849 15.9433 139.793 16 139.679 16H138.387C138.274 16 138.217 15.9433 138.217 15.83V4.27C138.217 4.15667 138.274 4.1 138.387 4.1H145.935C146.049 4.1 146.105 4.15667 146.105 4.27V5.341ZM151.656 16.153C150.828 16.153 150.097 15.983 149.463 15.643C148.828 15.303 148.335 14.827 147.984 14.215C147.632 13.5917 147.457 12.8777 147.457 12.073V8.027C147.457 7.22233 147.632 6.514 147.984 5.902C148.335 5.29 148.828 4.814 149.463 4.474C150.097 4.134 150.828 3.964 151.656 3.964C152.494 3.964 153.231 4.134 153.866 4.474C154.5 4.814 154.993 5.29 155.345 5.902C155.696 6.514 155.872 7.22233 155.872 8.027V12.073C155.872 12.8777 155.696 13.5917 155.345 14.215C154.993 14.827 154.5 15.303 153.866 15.643C153.231 15.983 152.494 16.153 151.656 16.153ZM151.656 14.742C152.426 14.742 153.05 14.504 153.526 14.028C154.002 13.552 154.24 12.923 154.24 12.141V8.01C154.24 7.21667 154.002 6.582 153.526 6.106C153.05 5.61867 152.426 5.375 151.656 5.375C150.885 5.375 150.262 5.61867 149.786 6.106C149.321 6.582 149.089 7.21667 149.089 8.01V12.141C149.089 12.923 149.321 13.552 149.786 14.028C150.262 14.504 150.885 14.742 151.656 14.742ZM158.525 16C158.412 16 158.355 15.9433 158.355 15.83V4.27C158.355 4.15667 158.412 4.1 158.525 4.1H159.817C159.93 4.1 159.987 4.15667 159.987 4.27V14.521C159.987 14.5663 160.01 14.589 160.055 14.589H165.92C166.033 14.589 166.09 14.6457 166.09 14.759V15.83C166.09 15.9433 166.033 16 165.92 16H158.525ZM168.22 16C168.107 16 168.05 15.9433 168.05 15.83V4.27C168.05 4.15667 168.107 4.1 168.22 4.1H169.512C169.626 4.1 169.682 4.15667 169.682 4.27V15.83C169.682 15.9433 169.626 16 169.512 16H168.22ZM176.342 16.153C175.515 16.153 174.784 15.983 174.149 15.643C173.515 15.303 173.022 14.827 172.67 14.215C172.319 13.5917 172.143 12.8777 172.143 12.073V8.027C172.143 7.22233 172.319 6.514 172.67 5.902C173.022 5.29 173.515 4.814 174.149 4.474C174.784 4.134 175.515 3.964 176.342 3.964C177.181 3.964 177.918 4.134 178.552 4.474C179.187 4.814 179.68 5.29 180.031 5.902C180.383 6.514 180.558 7.22233 180.558 8.027V12.073C180.558 12.8777 180.383 13.5917 180.031 14.215C179.68 14.827 179.187 15.303 178.552 15.643C177.918 15.983 177.181 16.153 176.342 16.153ZM176.342 14.742C177.113 14.742 177.736 14.504 178.212 14.028C178.688 13.552 178.926 12.923 178.926 12.141V8.01C178.926 7.21667 178.688 6.582 178.212 6.106C177.736 5.61867 177.113 5.375 176.342 5.375C175.572 5.375 174.948 5.61867 174.472 6.106C174.008 6.582 173.775 7.21667 173.775 8.01V12.141C173.775 12.923 174.008 13.552 174.472 14.028C174.948 14.504 175.572 14.742 176.342 14.742Z" fill="#E50000"/>
<path d="M329.693 14.504C329.682 14.5267 329.682 14.5493 329.693 14.572C329.704 14.5833 329.721 14.589 329.744 14.589H334.861C334.974 14.589 335.031 14.6457 335.031 14.759V15.83C335.031 15.9433 334.974 16 334.861 16H327.738C327.625 16 327.568 15.9433 327.568 15.83V14.793C327.568 14.7137 327.596 14.6457 327.653 14.589C328.038 14.147 328.922 13.11 330.305 11.478L331.478 10.067C332.532 8.809 333.059 7.83433 333.059 7.143C333.059 6.61033 332.878 6.18533 332.515 5.868C332.164 5.53933 331.693 5.375 331.104 5.375C330.515 5.375 330.044 5.53933 329.693 5.868C329.342 6.19667 329.172 6.62733 329.183 7.16V7.67C329.183 7.78333 329.126 7.84 329.013 7.84H327.704C327.591 7.84 327.534 7.78333 327.534 7.67V6.939C327.557 6.34967 327.721 5.82833 328.027 5.375C328.344 4.92167 328.769 4.576 329.302 4.338C329.835 4.08867 330.435 3.964 331.104 3.964C331.829 3.964 332.464 4.1 333.008 4.372C333.552 4.644 333.971 5.018 334.266 5.494C334.561 5.97 334.708 6.50833 334.708 7.109C334.708 8.04967 334.198 9.16033 333.178 10.441C332.725 11.019 332.186 11.6707 331.563 12.396C330.94 13.11 330.316 13.8127 329.693 14.504ZM340.691 16.17C339.546 16.17 338.634 15.847 337.954 15.201C337.285 14.5437 336.951 13.6653 336.951 12.566V7.534C336.951 6.43467 337.285 5.562 337.954 4.916C338.634 4.27 339.546 3.947 340.691 3.947C341.836 3.947 342.748 4.27 343.428 4.916C344.119 5.562 344.465 6.43467 344.465 7.534V12.566C344.465 13.6653 344.119 14.5437 343.428 15.201C342.748 15.847 341.836 16.17 340.691 16.17ZM340.691 14.759C341.348 14.759 341.87 14.572 342.255 14.198C342.64 13.8127 342.833 13.3027 342.833 12.668V7.466C342.833 6.83133 342.64 6.327 342.255 5.953C341.87 5.56767 341.348 5.375 340.691 5.375C340.056 5.375 339.546 5.56767 339.161 5.953C338.776 6.327 338.583 6.83133 338.583 7.466V12.668C338.583 13.3027 338.776 13.8127 339.161 14.198C339.546 14.572 340.056 14.759 340.691 14.759ZM348.569 14.504C348.558 14.5267 348.558 14.5493 348.569 14.572C348.58 14.5833 348.597 14.589 348.62 14.589H353.737C353.85 14.589 353.907 14.6457 353.907 14.759V15.83C353.907 15.9433 353.85 16 353.737 16H346.614C346.501 16 346.444 15.9433 346.444 15.83V14.793C346.444 14.7137 346.472 14.6457 346.529 14.589C346.914 14.147 347.798 13.11 349.181 11.478L350.354 10.067C351.408 8.809 351.935 7.83433 351.935 7.143C351.935 6.61033 351.754 6.18533 351.391 5.868C351.04 5.53933 350.569 5.375 349.98 5.375C349.391 5.375 348.92 5.53933 348.569 5.868C348.218 6.19667 348.048 6.62733 348.059 7.16V7.67C348.059 7.78333 348.002 7.84 347.889 7.84H346.58C346.467 7.84 346.41 7.78333 346.41 7.67V6.939C346.433 6.34967 346.597 5.82833 346.903 5.375C347.22 4.92167 347.645 4.576 348.178 4.338C348.711 4.08867 349.311 3.964 349.98 3.964C350.705 3.964 351.34 4.1 351.884 4.372C352.428 4.644 352.847 5.018 353.142 5.494C353.437 5.97 353.584 6.50833 353.584 7.109C353.584 8.04967 353.074 9.16033 352.054 10.441C351.601 11.019 351.062 11.6707 350.439 12.396C349.816 13.11 349.192 13.8127 348.569 14.504ZM362.729 10.73C362.854 11.2287 362.916 11.7443 362.916 12.277C362.916 12.8097 362.848 13.3027 362.712 13.756C362.497 14.4813 362.083 15.0593 361.471 15.49C360.87 15.9093 360.151 16.119 359.312 16.119C358.485 16.119 357.776 15.915 357.187 15.507C356.598 15.099 356.184 14.5437 355.946 13.841C355.833 13.5237 355.77 13.246 355.759 13.008V12.974C355.759 12.8833 355.81 12.838 355.912 12.838H357.255C357.357 12.838 357.414 12.889 357.425 12.991C357.436 13.0703 357.465 13.1893 357.51 13.348C357.635 13.7673 357.85 14.1017 358.156 14.351C358.473 14.589 358.853 14.708 359.295 14.708C359.76 14.708 360.151 14.5833 360.468 14.334C360.797 14.0733 361.018 13.7163 361.131 13.263C361.21 13.025 361.25 12.6963 361.25 12.277C361.25 11.903 361.216 11.5573 361.148 11.24C361.069 10.8093 360.865 10.4807 360.536 10.254C360.219 10.016 359.822 9.897 359.346 9.897C358.904 9.897 358.507 9.999 358.156 10.203C357.805 10.3957 357.578 10.6563 357.476 10.985C357.442 11.087 357.38 11.138 357.289 11.138H355.929C355.816 11.138 355.759 11.0813 355.759 10.968V4.27C355.759 4.15667 355.816 4.1 355.929 4.1H362.287C362.4 4.1 362.457 4.15667 362.457 4.27V5.341C362.457 5.45433 362.4 5.511 362.287 5.511H357.459C357.414 5.511 357.391 5.53367 357.391 5.579L357.374 9.132C357.374 9.2 357.402 9.217 357.459 9.183C357.731 8.945 358.043 8.76933 358.394 8.656C358.757 8.53133 359.136 8.469 359.533 8.469C360.326 8.469 361.006 8.66733 361.573 9.064C362.151 9.46067 362.536 10.016 362.729 10.73Z" fill="#E50000"/>
</svg>
