<svg width="149" height="28" viewBox="0 0 149 28" fill="none" xmlns="http://www.w3.org/2000/svg">
<path d="M32.144 10.112C31.0893 10.112 30.254 9.874 29.638 9.398C29.0313 8.922 28.728 8.28733 28.728 7.494V7.06C28.728 6.96667 28.7747 6.92 28.868 6.92H29.554C29.6473 6.92 29.694 6.96667 29.694 7.06V7.438C29.694 7.97933 29.918 8.418 30.366 8.754C30.814 9.08067 31.4347 9.244 32.228 9.244C32.9467 9.244 33.4927 9.09467 33.866 8.796C34.2393 8.488 34.426 8.082 34.426 7.578C34.426 7.25133 34.3373 6.97133 34.16 6.738C33.992 6.50467 33.726 6.28533 33.362 6.08C33.0073 5.87467 32.5033 5.63667 31.85 5.366C31.15 5.086 30.604 4.84333 30.212 4.638C29.8293 4.42333 29.5167 4.15267 29.274 3.826C29.0407 3.49 28.924 3.07 28.924 2.566C28.924 1.782 29.1947 1.17533 29.736 0.746C30.2867 0.307333 31.038 0.0879999 31.99 0.0879999C33.026 0.0879999 33.8427 0.330667 34.44 0.816C35.0373 1.30133 35.336 1.94533 35.336 2.748V3.056C35.336 3.14933 35.2893 3.196 35.196 3.196H34.496C34.4027 3.196 34.356 3.14933 34.356 3.056V2.804C34.356 2.26267 34.1413 1.81933 33.712 1.474C33.292 1.12867 32.704 0.956 31.948 0.956C31.2853 0.956 30.7767 1.09133 30.422 1.362C30.0673 1.63267 29.89 2.02467 29.89 2.538C29.89 2.874 29.974 3.154 30.142 3.378C30.3193 3.59267 30.5667 3.784 30.884 3.952C31.2107 4.11067 31.71 4.32067 32.382 4.582C33.0633 4.862 33.6093 5.12333 34.02 5.366C34.44 5.60867 34.776 5.90733 35.028 6.262C35.2893 6.60733 35.42 7.032 35.42 7.536C35.42 8.32 35.1307 8.94533 34.552 9.412C33.9733 9.87867 33.1707 10.112 32.144 10.112ZM40.4738 10.126C39.8204 10.126 39.2464 10 38.7518 9.748C38.2571 9.48667 37.8698 9.12267 37.5898 8.656C37.3191 8.18 37.1838 7.634 37.1838 7.018V3.168C37.1838 2.56133 37.3191 2.02467 37.5898 1.558C37.8698 1.09133 38.2571 0.731999 38.7518 0.48C39.2464 0.218667 39.8204 0.0879999 40.4738 0.0879999C41.1271 0.0879999 41.7011 0.214 42.1958 0.465999C42.6904 0.717999 43.0731 1.07267 43.3438 1.53C43.6238 1.98733 43.7638 2.51467 43.7638 3.112C43.7638 3.15867 43.7498 3.196 43.7218 3.224C43.6938 3.252 43.6611 3.266 43.6238 3.266L42.9098 3.308C42.8164 3.308 42.7698 3.266 42.7698 3.182V3.14C42.7698 2.47733 42.5598 1.95 42.1398 1.558C41.7198 1.15667 41.1644 0.956 40.4738 0.956C39.7831 0.956 39.2278 1.15667 38.8078 1.558C38.3878 1.95933 38.1778 2.48667 38.1778 3.14V7.06C38.1778 7.71333 38.3878 8.24067 38.8078 8.642C39.2278 9.04333 39.7831 9.244 40.4738 9.244C41.1644 9.244 41.7198 9.048 42.1398 8.656C42.5598 8.25467 42.7698 7.72267 42.7698 7.06V7.032C42.7698 6.948 42.8164 6.906 42.9098 6.906L43.6238 6.948C43.7171 6.948 43.7638 6.99 43.7638 7.074C43.7638 7.68067 43.6238 8.21733 43.3438 8.684C43.0731 9.14133 42.6904 9.496 42.1958 9.748C41.7011 10 41.1271 10.126 40.4738 10.126ZM51.7077 10C51.6237 10 51.5677 9.96733 51.5397 9.902L49.4817 5.562C49.4724 5.534 49.4537 5.52 49.4257 5.52H47.0457C47.0084 5.52 46.9897 5.53867 46.9897 5.576V9.86C46.9897 9.95333 46.943 10 46.8497 10H46.1357C46.0424 10 45.9957 9.95333 45.9957 9.86V0.339999C45.9957 0.246666 46.0424 0.199999 46.1357 0.199999H49.7617C50.5644 0.199999 51.213 0.451999 51.7077 0.956C52.2024 1.45067 52.4497 2.09933 52.4497 2.902C52.4497 3.55533 52.2724 4.11067 51.9177 4.568C51.563 5.02533 51.0824 5.31933 50.4757 5.45C50.4384 5.46867 50.429 5.492 50.4477 5.52L52.5477 9.832C52.557 9.85067 52.5617 9.874 52.5617 9.902C52.5617 9.96733 52.5244 10 52.4497 10H51.7077ZM47.0457 1.068C47.0084 1.068 46.9897 1.08667 46.9897 1.124V4.666C46.9897 4.70333 47.0084 4.722 47.0457 4.722H49.6497C50.191 4.722 50.6297 4.554 50.9657 4.218C51.3017 3.882 51.4697 3.44333 51.4697 2.902C51.4697 2.36067 51.3017 1.922 50.9657 1.586C50.6297 1.24067 50.191 1.068 49.6497 1.068H47.0457ZM57.592 10.112C56.9293 10.112 56.346 9.97667 55.842 9.706C55.338 9.43533 54.946 9.05733 54.666 8.572C54.3953 8.07733 54.26 7.508 54.26 6.864V3.336C54.26 2.692 54.3953 2.12733 54.666 1.642C54.946 1.14733 55.338 0.764666 55.842 0.494C56.346 0.223333 56.9293 0.0879999 57.592 0.0879999C58.2546 0.0879999 58.838 0.223333 59.342 0.494C59.8553 0.764666 60.2473 1.14733 60.518 1.642C60.798 2.12733 60.938 2.692 60.938 3.336V6.864C60.938 7.508 60.798 8.07733 60.518 8.572C60.2473 9.05733 59.8553 9.43533 59.342 9.706C58.838 9.97667 58.2546 10.112 57.592 10.112ZM57.592 9.258C58.3013 9.258 58.8706 9.04333 59.3 8.614C59.7293 8.18467 59.944 7.61533 59.944 6.906V3.322C59.944 2.61267 59.7293 2.04333 59.3 1.614C58.8706 1.17533 58.3013 0.956 57.592 0.956C56.892 0.956 56.3273 1.17533 55.898 1.614C55.4686 2.04333 55.254 2.61267 55.254 3.322V6.906C55.254 7.61533 55.4686 8.18467 55.898 8.614C56.3273 9.04333 56.892 9.258 57.592 9.258ZM63.4169 10C63.3236 10 63.2769 9.95333 63.2769 9.86V0.339999C63.2769 0.246666 63.3236 0.199999 63.4169 0.199999H64.1309C64.2243 0.199999 64.2709 0.246666 64.2709 0.339999V9.076C64.2709 9.11333 64.2896 9.132 64.3269 9.132H69.2689C69.3623 9.132 69.4089 9.17867 69.4089 9.272V9.86C69.4089 9.95333 69.3623 10 69.2689 10H63.4169ZM71.374 10C71.2806 10 71.234 9.95333 71.234 9.86V0.339999C71.234 0.246666 71.2806 0.199999 71.374 0.199999H72.088C72.1813 0.199999 72.228 0.246666 72.228 0.339999V9.076C72.228 9.11333 72.2466 9.132 72.284 9.132H77.226C77.3193 9.132 77.366 9.17867 77.366 9.272V9.86C77.366 9.95333 77.3193 10 77.226 10H71.374ZM88.3217 0.928C88.3217 1.02133 88.2751 1.068 88.1817 1.068H83.0437C83.0064 1.068 82.9877 1.08667 82.9877 1.124V4.582C82.9877 4.61933 83.0064 4.638 83.0437 4.638H86.6417C86.7351 4.638 86.7817 4.68467 86.7817 4.778V5.366C86.7817 5.45933 86.7351 5.506 86.6417 5.506H83.0437C83.0064 5.506 82.9877 5.52467 82.9877 5.562V9.86C82.9877 9.95333 82.9411 10 82.8477 10H82.1337C82.0404 10 81.9937 9.95333 81.9937 9.86V0.339999C81.9937 0.246666 82.0404 0.199999 82.1337 0.199999H88.1817C88.2751 0.199999 88.3217 0.246666 88.3217 0.339999V0.928ZM92.9201 10.112C92.2574 10.112 91.6741 9.97667 91.1701 9.706C90.6661 9.43533 90.2741 9.05733 89.9941 8.572C89.7234 8.07733 89.5881 7.508 89.5881 6.864V3.336C89.5881 2.692 89.7234 2.12733 89.9941 1.642C90.2741 1.14733 90.6661 0.764666 91.1701 0.494C91.6741 0.223333 92.2574 0.0879999 92.9201 0.0879999C93.5827 0.0879999 94.1661 0.223333 94.6701 0.494C95.1834 0.764666 95.5754 1.14733 95.8461 1.642C96.1261 2.12733 96.2661 2.692 96.2661 3.336V6.864C96.2661 7.508 96.1261 8.07733 95.8461 8.572C95.5754 9.05733 95.1834 9.43533 94.6701 9.706C94.1661 9.97667 93.5827 10.112 92.9201 10.112ZM92.9201 9.258C93.6294 9.258 94.1987 9.04333 94.6281 8.614C95.0574 8.18467 95.2721 7.61533 95.2721 6.906V3.322C95.2721 2.61267 95.0574 2.04333 94.6281 1.614C94.1987 1.17533 93.6294 0.956 92.9201 0.956C92.2201 0.956 91.6554 1.17533 91.2261 1.614C90.7967 2.04333 90.5821 2.61267 90.5821 3.322V6.906C90.5821 7.61533 90.7967 8.18467 91.2261 8.614C91.6554 9.04333 92.2201 9.258 92.9201 9.258ZM104.317 10C104.233 10 104.177 9.96733 104.149 9.902L102.091 5.562C102.082 5.534 102.063 5.52 102.035 5.52H99.6551C99.6177 5.52 99.5991 5.53867 99.5991 5.576V9.86C99.5991 9.95333 99.5524 10 99.4591 10H98.7451C98.6517 10 98.6051 9.95333 98.6051 9.86V0.339999C98.6051 0.246666 98.6517 0.199999 98.7451 0.199999H102.371C103.174 0.199999 103.822 0.451999 104.317 0.956C104.812 1.45067 105.059 2.09933 105.059 2.902C105.059 3.55533 104.882 4.11067 104.527 4.568C104.172 5.02533 103.692 5.31933 103.085 5.45C103.048 5.46867 103.038 5.492 103.057 5.52L105.157 9.832C105.166 9.85067 105.171 9.874 105.171 9.902C105.171 9.96733 105.134 10 105.059 10H104.317ZM99.6551 1.068C99.6177 1.068 99.5991 1.08667 99.5991 1.124V4.666C99.5991 4.70333 99.6177 4.722 99.6551 4.722H102.259C102.8 4.722 103.239 4.554 103.575 4.218C103.911 3.882 104.079 3.44333 104.079 2.902C104.079 2.36067 103.911 1.922 103.575 1.586C103.239 1.24067 102.8 1.068 102.259 1.068H99.6551ZM33.04 17.186C33.8613 17.186 34.5193 17.438 35.014 17.942C35.518 18.446 35.77 19.1087 35.77 19.93C35.77 20.742 35.5133 21.3953 35 21.89C34.496 22.3847 33.8287 22.632 32.998 22.632H30.268C30.2307 22.632 30.212 22.6507 30.212 22.688V26.86C30.212 26.9533 30.1653 27 30.072 27H29.358C29.2647 27 29.218 26.9533 29.218 26.86V17.326C29.218 17.2327 29.2647 17.186 29.358 17.186H33.04ZM32.928 21.806C33.4787 21.806 33.9267 21.638 34.272 21.302C34.6173 20.9567 34.79 20.504 34.79 19.944C34.79 19.3747 34.6173 18.9173 34.272 18.572C33.9267 18.2267 33.4787 18.054 32.928 18.054H30.268C30.2307 18.054 30.212 18.0727 30.212 18.11V21.75C30.212 21.7873 30.2307 21.806 30.268 21.806H32.928ZM43.3132 27C43.2292 27 43.1732 26.9673 43.1452 26.902L41.0872 22.562C41.0778 22.534 41.0592 22.52 41.0312 22.52H38.6512C38.6138 22.52 38.5952 22.5387 38.5952 22.576V26.86C38.5952 26.9533 38.5485 27 38.4552 27H37.7412C37.6478 27 37.6012 26.9533 37.6012 26.86V17.34C37.6012 17.2467 37.6478 17.2 37.7412 17.2H41.3672C42.1698 17.2 42.8185 17.452 43.3132 17.956C43.8078 18.4507 44.0552 19.0993 44.0552 19.902C44.0552 20.5553 43.8778 21.1107 43.5232 21.568C43.1685 22.0253 42.6878 22.3193 42.0812 22.45C42.0438 22.4687 42.0345 22.492 42.0532 22.52L44.1532 26.832C44.1625 26.8507 44.1672 26.874 44.1672 26.902C44.1672 26.9673 44.1298 27 44.0552 27H43.3132ZM38.6512 18.068C38.6138 18.068 38.5952 18.0867 38.5952 18.124V21.666C38.5952 21.7033 38.6138 21.722 38.6512 21.722H41.2552C41.7965 21.722 42.2352 21.554 42.5712 21.218C42.9072 20.882 43.0752 20.4433 43.0752 19.902C43.0752 19.3607 42.9072 18.922 42.5712 18.586C42.2352 18.2407 41.7965 18.068 41.2552 18.068H38.6512ZM52.5154 17.928C52.5154 18.0213 52.4688 18.068 52.3754 18.068H47.2234C47.1861 18.068 47.1674 18.0867 47.1674 18.124V21.582C47.1674 21.6193 47.1861 21.638 47.2234 21.638H50.8354C50.9288 21.638 50.9754 21.6847 50.9754 21.778V22.366C50.9754 22.4593 50.9288 22.506 50.8354 22.506H47.2234C47.1861 22.506 47.1674 22.5247 47.1674 22.562V26.076C47.1674 26.1133 47.1861 26.132 47.2234 26.132H52.3754C52.4688 26.132 52.5154 26.1787 52.5154 26.272V26.86C52.5154 26.9533 52.4688 27 52.3754 27H46.3134C46.2201 27 46.1734 26.9533 46.1734 26.86V17.34C46.1734 17.2467 46.2201 17.2 46.3134 17.2H52.3754C52.4688 17.2 52.5154 17.2467 52.5154 17.34V17.928ZM57.2494 27C57.1654 27 57.1094 26.9627 57.0814 26.888L54.0294 17.354L54.0154 17.298C54.0154 17.2327 54.0574 17.2 54.1414 17.2H54.8974C54.9814 17.2 55.0374 17.2373 55.0654 17.312L57.6134 25.516C57.6227 25.5347 57.6367 25.544 57.6554 25.544C57.6741 25.544 57.6881 25.5347 57.6974 25.516L60.2454 17.312C60.2734 17.2373 60.3294 17.2 60.4134 17.2H61.1554C61.2581 17.2 61.2954 17.2513 61.2674 17.354L58.1874 26.888C58.1594 26.9627 58.1034 27 58.0194 27H57.2494ZM63.2255 27C63.1322 27 63.0855 26.9533 63.0855 26.86V17.34C63.0855 17.2467 63.1322 17.2 63.2255 17.2H63.9395C64.0329 17.2 64.0795 17.2467 64.0795 17.34V26.86C64.0795 26.9533 64.0329 27 63.9395 27H63.2255ZM69.7326 27.112C69.0699 27.112 68.4866 26.9767 67.9826 26.706C67.4786 26.4353 67.0866 26.0573 66.8066 25.572C66.5359 25.0773 66.4006 24.508 66.4006 23.864V20.336C66.4006 19.692 66.5359 19.1273 66.8066 18.642C67.0866 18.1473 67.4786 17.7647 67.9826 17.494C68.4866 17.2233 69.0699 17.088 69.7326 17.088C70.3952 17.088 70.9786 17.2233 71.4826 17.494C71.9959 17.7647 72.3879 18.1473 72.6586 18.642C72.9386 19.1273 73.0786 19.692 73.0786 20.336V23.864C73.0786 24.508 72.9386 25.0773 72.6586 25.572C72.3879 26.0573 71.9959 26.4353 71.4826 26.706C70.9786 26.9767 70.3952 27.112 69.7326 27.112ZM69.7326 26.258C70.4419 26.258 71.0112 26.0433 71.4406 25.614C71.8699 25.1847 72.0846 24.6153 72.0846 23.906V20.322C72.0846 19.6127 71.8699 19.0433 71.4406 18.614C71.0112 18.1753 70.4419 17.956 69.7326 17.956C69.0326 17.956 68.4679 18.1753 68.0386 18.614C67.6092 19.0433 67.3946 19.6127 67.3946 20.322V23.906C67.3946 24.6153 67.6092 25.1847 68.0386 25.614C68.4679 26.0433 69.0326 26.258 69.7326 26.258ZM78.6376 27.112C77.9842 27.112 77.4056 26.9813 76.9016 26.72C76.3976 26.4587 76.0056 26.0947 75.7256 25.628C75.4456 25.152 75.3056 24.6013 75.3056 23.976V17.34C75.3056 17.2467 75.3522 17.2 75.4456 17.2H76.1596C76.2529 17.2 76.2996 17.2467 76.2996 17.34V24.004C76.2996 24.6667 76.5142 25.208 76.9436 25.628C77.3729 26.0387 77.9376 26.244 78.6376 26.244C79.3376 26.244 79.9022 26.0387 80.3316 25.628C80.7609 25.208 80.9756 24.6667 80.9756 24.004V17.34C80.9756 17.2467 81.0222 17.2 81.1156 17.2H81.8296C81.9229 17.2 81.9696 17.2467 81.9696 17.34V23.976C81.9696 24.6013 81.8296 25.152 81.5496 25.628C81.2789 26.0947 80.8916 26.4587 80.3876 26.72C79.8836 26.9813 79.3002 27.112 78.6376 27.112ZM87.3237 27.112C86.269 27.112 85.4337 26.874 84.8177 26.398C84.211 25.922 83.9077 25.2873 83.9077 24.494V24.06C83.9077 23.9667 83.9544 23.92 84.0477 23.92H84.7337C84.827 23.92 84.8737 23.9667 84.8737 24.06V24.438C84.8737 24.9793 85.0977 25.418 85.5457 25.754C85.9937 26.0807 86.6144 26.244 87.4077 26.244C88.1264 26.244 88.6724 26.0947 89.0457 25.796C89.419 25.488 89.6057 25.082 89.6057 24.578C89.6057 24.2513 89.517 23.9713 89.3397 23.738C89.1717 23.5047 88.9057 23.2853 88.5417 23.08C88.187 22.8747 87.683 22.6367 87.0297 22.366C86.3297 22.086 85.7837 21.8433 85.3917 21.638C85.009 21.4233 84.6964 21.1527 84.4537 20.826C84.2204 20.49 84.1037 20.07 84.1037 19.566C84.1037 18.782 84.3744 18.1753 84.9157 17.746C85.4664 17.3073 86.2177 17.088 87.1697 17.088C88.2057 17.088 89.0224 17.3307 89.6197 17.816C90.217 18.3013 90.5157 18.9453 90.5157 19.748V20.056C90.5157 20.1493 90.469 20.196 90.3757 20.196H89.6757C89.5824 20.196 89.5357 20.1493 89.5357 20.056V19.804C89.5357 19.2627 89.321 18.8193 88.8917 18.474C88.4717 18.1287 87.8837 17.956 87.1277 17.956C86.465 17.956 85.9564 18.0913 85.6017 18.362C85.247 18.6327 85.0697 19.0247 85.0697 19.538C85.0697 19.874 85.1537 20.154 85.3217 20.378C85.499 20.5927 85.7464 20.784 86.0637 20.952C86.3904 21.1107 86.8897 21.3207 87.5617 21.582C88.243 21.862 88.789 22.1233 89.1997 22.366C89.6197 22.6087 89.9557 22.9073 90.2077 23.262C90.469 23.6073 90.5997 24.032 90.5997 24.536C90.5997 25.32 90.3104 25.9453 89.7317 26.412C89.153 26.8787 88.3504 27.112 87.3237 27.112ZM97.3922 27C97.3175 27 97.2662 26.9627 97.2382 26.888L94.5502 17.354L94.5362 17.312C94.5362 17.2373 94.5829 17.2 94.6762 17.2H95.4182C95.5022 17.2 95.5535 17.2373 95.5722 17.312L97.7002 24.984C97.7095 25.0027 97.7189 25.012 97.7282 25.012C97.7469 25.012 97.7609 25.0027 97.7702 24.984L99.7442 17.326C99.7629 17.242 99.8142 17.2 99.8982 17.2H100.654C100.738 17.2 100.79 17.242 100.808 17.326L102.866 24.984C102.876 25.0027 102.885 25.012 102.894 25.012C102.913 25.012 102.927 25.0027 102.936 24.984L105.064 17.312C105.083 17.2373 105.134 17.2 105.218 17.2H105.932C105.979 17.2 106.012 17.214 106.03 17.242C106.058 17.27 106.068 17.3073 106.058 17.354L103.412 26.888C103.394 26.9627 103.342 27 103.258 27H102.516C102.432 27 102.381 26.958 102.362 26.874L100.318 19.034C100.309 19.0153 100.295 19.006 100.276 19.006C100.267 19.006 100.258 19.0153 100.248 19.034L98.2462 26.874C98.2369 26.958 98.1855 27 98.0922 27H97.3922ZM110.475 27.112C109.812 27.112 109.229 26.9767 108.725 26.706C108.221 26.4353 107.829 26.0573 107.549 25.572C107.278 25.0773 107.143 24.508 107.143 23.864V20.336C107.143 19.692 107.278 19.1273 107.549 18.642C107.829 18.1473 108.221 17.7647 108.725 17.494C109.229 17.2233 109.812 17.088 110.475 17.088C111.137 17.088 111.721 17.2233 112.225 17.494C112.738 17.7647 113.13 18.1473 113.401 18.642C113.681 19.1273 113.821 19.692 113.821 20.336V23.864C113.821 24.508 113.681 25.0773 113.401 25.572C113.13 26.0573 112.738 26.4353 112.225 26.706C111.721 26.9767 111.137 27.112 110.475 27.112ZM110.475 26.258C111.184 26.258 111.753 26.0433 112.183 25.614C112.612 25.1847 112.827 24.6153 112.827 23.906V20.322C112.827 19.6127 112.612 19.0433 112.183 18.614C111.753 18.1753 111.184 17.956 110.475 17.956C109.775 17.956 109.21 18.1753 108.781 18.614C108.351 19.0433 108.137 19.6127 108.137 20.322V23.906C108.137 24.6153 108.351 25.1847 108.781 25.614C109.21 26.0433 109.775 26.258 110.475 26.258ZM121.872 27C121.788 27 121.732 26.9673 121.704 26.902L119.646 22.562C119.636 22.534 119.618 22.52 119.59 22.52H117.21C117.172 22.52 117.154 22.5387 117.154 22.576V26.86C117.154 26.9533 117.107 27 117.014 27H116.3C116.206 27 116.16 26.9533 116.16 26.86V17.34C116.16 17.2467 116.206 17.2 116.3 17.2H119.926C120.728 17.2 121.377 17.452 121.872 17.956C122.366 18.4507 122.614 19.0993 122.614 19.902C122.614 20.5553 122.436 21.1107 122.082 21.568C121.727 22.0253 121.246 22.3193 120.64 22.45C120.602 22.4687 120.593 22.492 120.612 22.52L122.712 26.832C122.721 26.8507 122.726 26.874 122.726 26.902C122.726 26.9673 122.688 27 122.614 27H121.872ZM117.21 18.068C117.172 18.068 117.154 18.0867 117.154 18.124V21.666C117.154 21.7033 117.172 21.722 117.21 21.722H119.814C120.355 21.722 120.794 21.554 121.13 21.218C121.466 20.882 121.634 20.4433 121.634 19.902C121.634 19.3607 121.466 18.922 121.13 18.586C120.794 18.2407 120.355 18.068 119.814 18.068H117.21ZM124.872 27C124.779 27 124.732 26.9533 124.732 26.86V17.34C124.732 17.2467 124.779 17.2 124.872 17.2H125.586C125.679 17.2 125.726 17.2467 125.726 17.34V22.086C125.726 22.1047 125.735 22.1187 125.754 22.128C125.773 22.1373 125.787 22.1327 125.796 22.114L130.22 17.27C130.257 17.2233 130.313 17.2 130.388 17.2H131.2C131.256 17.2 131.289 17.2187 131.298 17.256C131.317 17.2933 131.307 17.3307 131.27 17.368L127.84 21.246C127.821 21.2647 127.821 21.2927 127.84 21.33L131.564 26.832L131.592 26.902C131.592 26.9673 131.55 27 131.466 27H130.654C130.579 27 130.523 26.972 130.486 26.916L127.168 22.044C127.159 22.0253 127.145 22.016 127.126 22.016C127.107 22.016 127.093 22.0207 127.084 22.03L125.754 23.444C125.735 23.4627 125.726 23.486 125.726 23.514V26.86C125.726 26.9533 125.679 27 125.586 27H124.872Z" fill="#E6E6E6"/>
<path d="M7.29289 27.7071C7.68342 28.0976 8.31658 28.0976 8.70711 27.7071L15.0711 21.3431C15.4616 20.9526 15.4616 20.3195 15.0711 19.9289C14.6805 19.5384 14.0474 19.5384 13.6569 19.9289L8 25.5858L2.34315 19.9289C1.95262 19.5384 1.31946 19.5384 0.928932 19.9289C0.538408 20.3195 0.538408 20.9526 0.928932 21.3431L7.29289 27.7071ZM7 0V27H9V0H7Z" fill="#E50000"/>
</svg>
